<svg height="480pt" viewBox="0 0 480.03421 480" width="480pt" xmlns="http://www.w3.org/2000/svg"><path d="m72 8.015625h336c35.347656 0 64 28.65625 64 64v192c0 35.347656-28.652344 64-64 64h-336c-35.347656 0-64-28.652344-64-64v-192c0-35.34375 28.652344-64 64-64zm0 0" fill="#ff7f00"/><path d="m72 40.015625h336c17.671875 0 32 14.328125 32 32v192c0 17.675781-14.328125 32-32 32h-336c-17.671875 0-32-14.324219-32-32v-192c0-17.671875 14.328125-32 32-32zm0 0" fill="#20b2ad"/><path d="m88 88.015625h200v40h-200zm0 0" fill="#ffd700"/><path d="m344.285156 310.519531 27.714844-16 36 62.355469-27.714844 16zm0 0" fill="#800080"/><path d="m402.144531 240.167969c0 44.183593-35.816406 80-80 80-44.183593 0-80-35.816407-80-80 0-44.183594 35.816407-80 80-80 44.183594 0 80 35.816406 80 80zm0 0" fill="#ffd700"/><path d="m380.292969 372.875 27.710937-16c7.652344-4.417969 17.4375-1.796875 21.855469 5.859375l40 69.28125c4.417969 7.652344 1.796875 17.4375-5.855469 21.855469l-27.710937 16c-7.652344 4.417968-17.441407 1.796875-21.859375-5.855469l-40-69.28125c-4.417969-7.65625-1.792969-17.441406 5.859375-21.859375zm0 0" fill="#20b2ad"/><path d="m288 88.015625h64v40h-64zm0 0" fill="#800080"/><path d="m152 408.015625-32-32-32 32v-80h64zm0 0" fill="#ffd700"/><g fill="#006"><path d="m236.800781 320.015625h-164.800781c-4.417969 0-8 3.582031-8 8s3.582031 8 8 8h164.800781c4.417969 0 8-3.582031 8-8s-3.582031-8-8-8zm0 0"/><path d="m72 16.015625h336c4.417969 0 8-3.582031 8-8s-3.582031-8-8-8h-336c-39.746094.046875-71.9570312 32.253906-72 72v192c0 4.417969 3.582031 8 8 8s8-3.582031 8-8v-192c.035156-30.910156 25.085938-55.964844 56-56zm0 0"/><path d="m472 120.015625c-4.417969 0-8 3.582031-8 8v136c-.019531 23.050781-14.160156 43.738281-35.632812 52.121094-.289063-.078125-.582032-.144531-.878907-.207031-2.824219-.664063-5.78125.253906-7.738281 2.394531-1.953125 2.140625-2.597656 5.171875-1.679688 7.921875.917969 2.75 3.25 4.789062 6.097657 5.332031.558593.117187 1.097656.277344 2.398437.65625 1.5625.425781 3.210938.378906 4.746094-.136719 29.105469-9.960937 48.667969-37.316406 48.6875-68.082031v-136c0-4.417969-3.582031-8-8-8zm0 0"/><path d="m193.070312 304.015625c4.421876 0 8-3.582031 8-8s-3.578124-8-8-8h-121.070312c-13.253906 0-24-10.742187-24-24 0-4.417969-3.582031-8-8-8s-8 3.582031-8 8c.027344 22.082031 17.917969 39.976563 40 40zm0 0"/><path d="m400 40.015625c0 4.417969 3.582031 8 8 8 13.253906 0 24 10.746094 24 24v192c0 9.621094-5.742188 18.3125-14.59375 22.082031-4.0625 1.734375-5.953125 6.433594-4.21875 10.5 1.734375 4.0625 6.4375 5.953125 10.5 4.21875 14.746094-6.285156 24.3125-20.769531 24.3125-36.800781v-192c-.027344-22.078125-17.917969-39.972656-40-40-4.417969 0-8 3.582031-8 8zm0 0"/><path d="m304 40.015625c0-4.417969-3.582031-8-8-8h-224c-22.082031.027344-39.972656 17.921875-40 40 0 4.417969 3.582031 8 8 8s8-3.582031 8-8c0-13.253906 10.746094-24 24-24h224c4.417969 0 8-3.582031 8-8zm0 0"/><path d="m278.144531 163.953125c-19.015625 10.988281-33.21875 28.710937-39.800781 49.664063-1 2.761718-.40625 5.851562 1.550781 8.046874 1.957031 2.195313 4.957031 3.136719 7.816407 2.460938 2.859374-.679688 5.117187-2.871094 5.882812-5.707031 5.382812-17.136719 16.996094-31.632813 32.550781-40.617188 3.828125-2.207031 5.140625-7.101562 2.929688-10.933593-2.207031-3.828126-7.101563-5.140626-10.929688-2.929688zm0 0"/><path d="m436.800781 358.738281c-5.046875-8.832031-15.160156-13.46875-25.144531-11.519531l-26.398438-45.777344c20.195313-20.789062 28.851563-50.199218 23.132813-78.617187-.871094-4.332031-5.089844-7.136719-9.421875-6.261719-4.332031.871094-7.136719 5.089844-6.265625 9.421875 4.789063 23.613281-2.574219 48.054687-19.609375 65.089844-17.039062 17.035156-41.480469 24.398437-65.09375 19.605469-2.835938-.652344-5.804688.285156-7.75 2.453124-1.945312 2.167969-2.558594 5.222657-1.601562 7.972657.953124 2.75 3.328124 4.761719 6.199218 5.253906 12.84375 2.617187 26.117188 2.289063 38.816406-.957031l26.414063 45.816406c-6.660156 7.671875-7.699219 18.738281-2.582031 27.519531l40 69.277344c3.179687 5.519531 8.421875 9.550781 14.574218 11.199219 6.152344 1.652344 12.710938.789062 18.226563-2.398438l27.71875-16c5.519531-3.179687 9.546875-8.421875 11.199219-14.574218 1.648437-6.152344.789062-12.710938-2.398438-18.226563zm-70.640625-42.402343c2.328125-1.34375 4.558594-2.808594 6.726563-4.335938l24.203125 41.90625-13.867188 8-24.253906-42.03125c2.40625-1.074219 4.847656-2.152344 7.175781-3.496094zm93.839844 130.609374-27.710938 16c-3.828124 2.207032-8.71875.898438-10.929687-2.929687l-40-69.285156c-2.203125-3.824219-.898437-8.710938 2.921875-10.921875l27.695312-16c1.214844-.703125 2.59375-1.074219 4-1.070313.703126 0 1.40625.09375 2.085938.277344 2.050781.542969 3.796875 1.882813 4.847656 3.722656l40 69.285157c2.207032 3.820312.90625 8.707031-2.910156 10.921874zm0 0"/><path d="m302.144531 205.527344c19.128907-11.042969 43.59375-4.488282 54.640625 14.640625 1.417969 2.496093 4.066406 4.039062 6.9375 4.046875 2.867188.007812 5.523438-1.527344 6.953125-4.015625 1.429688-2.488281 1.417969-5.554688-.035156-8.03125-15.492187-26.746094-49.707031-35.914063-76.496094-20.496094-2.496093 1.421875-4.039062 4.066406-4.046875 6.9375-.007812 2.871094 1.527344 5.527344 4.015625 6.957031 2.488281 1.429688 5.554688 1.414063 8.03125-.039062zm0 0"/><path d="m352 136.015625c4.417969 0 8-3.582031 8-8v-40c0-4.417969-3.582031-8-8-8h-264c-4.417969 0-8 3.582031-8 8s3.582031 8 8 8h192v24h-192c-4.417969 0-8 3.582031-8 8s3.582031 8 8 8zm-8-16h-48v-24h48zm0 0"/><path d="m160 184.015625c4.417969 0 8-3.582031 8-8s-3.582031-8-8-8h-48c-4.417969 0-8 3.582031-8 8s3.582031 8 8 8zm0 0"/><path d="m96 216.015625c0 4.417969 3.582031 8 8 8h56c4.417969 0 8-3.582031 8-8s-3.582031-8-8-8h-56c-4.417969 0-8 3.582031-8 8zm0 0"/><path d="m104 264.015625h88c4.417969 0 8-3.582031 8-8s-3.582031-8-8-8h-88c-4.417969 0-8 3.582031-8 8s3.582031 8 8 8zm0 0"/><path d="m216 216.015625c0-4.417969-3.582031-8-8-8h-16c-4.417969 0-8 3.582031-8 8s3.582031 8 8 8h16c4.417969 0 8-3.582031 8-8zm0 0"/><path d="m232 176.015625c0-4.417969-3.582031-8-8-8h-32c-4.417969 0-8 3.582031-8 8s3.582031 8 8 8h32c4.417969 0 8-3.582031 8-8zm0 0"/><path d="m152 352.015625c-4.417969 0-8 3.582031-8 8v28.691406l-18.34375-18.347656c-3.125-3.121094-8.1875-3.121094-11.3125 0l-18.34375 18.347656v-28.691406c0-4.417969-3.582031-8-8-8s-8 3.582031-8 8v48c0 3.238281 1.949219 6.152344 4.9375 7.390625s6.429688.554688 8.71875-1.734375l26.34375-26.34375 26.34375 26.34375c2.289062 2.289063 5.730469 2.972656 8.71875 1.734375s4.9375-4.152344 4.9375-7.390625v-48c0-4.417969-3.582031-8-8-8zm0 0"/></g></svg>